<svg width="373" height="126" viewBox="0 0 373 126" fill="none" xmlns="http://www.w3.org/2000/svg">
<path d="M93.8695 74L102.15 45.0173H110.017L118.256 74H113.661L111.756 67.1684H100.411L98.5067 74H93.8695ZM101.529 63.028H110.638L106.415 47.7913H105.752L101.529 63.028ZM131.997 74.5797C129.816 74.5797 127.884 74.1932 126.2 73.4203C124.516 72.6475 123.191 71.5158 122.225 70.0252C121.287 68.5071 120.818 66.6715 120.818 64.5185V63.4834H125.248V64.5185C125.248 66.5611 125.855 68.093 127.07 69.1143C128.312 70.1356 129.954 70.6463 131.997 70.6463C134.067 70.6463 135.626 70.2184 136.675 69.3628C137.724 68.4795 138.249 67.3478 138.249 65.9676C138.249 65.0568 138 64.3115 137.503 63.7318C137.006 63.1522 136.303 62.6967 135.392 62.3655C134.481 62.0067 133.391 61.6754 132.121 61.3718L130.589 60.9992C128.74 60.5575 127.125 60.0193 125.745 59.3844C124.392 58.722 123.343 57.8525 122.598 56.776C121.853 55.6995 121.48 54.3194 121.48 52.6356C121.48 50.9242 121.894 49.4613 122.722 48.2468C123.578 47.0323 124.751 46.0938 126.241 45.4313C127.732 44.7689 129.485 44.4376 131.5 44.4376C133.515 44.4376 135.309 44.7827 136.882 45.4727C138.483 46.1628 139.739 47.1841 140.65 48.5366C141.561 49.8891 142.016 51.5867 142.016 53.6293V55.1198H137.586V53.6293C137.586 52.3872 137.324 51.3797 136.799 50.6068C136.303 49.8339 135.599 49.2681 134.688 48.9093C133.777 48.5504 132.714 48.371 131.5 48.371C129.733 48.371 128.353 48.7436 127.359 49.4889C126.393 50.2066 125.91 51.2141 125.91 52.5114C125.91 53.3947 126.117 54.1261 126.531 54.7058C126.973 55.2578 127.608 55.7133 128.436 56.0721C129.264 56.431 130.299 56.7484 131.541 57.0244L133.073 57.397C134.95 57.8111 136.606 58.3493 138.042 59.0118C139.477 59.6467 140.609 60.5161 141.437 61.6202C142.265 62.7243 142.679 64.1459 142.679 65.8848C142.679 67.6238 142.237 69.1419 141.354 70.4393C140.498 71.7366 139.27 72.7579 137.669 73.5032C136.068 74.2208 134.177 74.5797 131.997 74.5797ZM153.196 74V49.0749H144.294V45.0173H166.569V49.0749H157.667V74H153.196ZM170.622 74V45.0173H182.795C184.589 45.0173 186.162 45.3347 187.515 45.9696C188.895 46.5768 189.958 47.4601 190.703 48.6194C191.476 49.7787 191.862 51.1589 191.862 52.7598V53.2153C191.862 55.037 191.421 56.5 190.538 57.6041C189.682 58.6806 188.633 59.4396 187.391 59.8813V60.5437C188.44 60.5989 189.282 60.9578 189.916 61.6202C190.551 62.2551 190.869 63.1798 190.869 64.3943V74H186.356V65.0154C186.356 64.2701 186.162 63.6766 185.776 63.235C185.39 62.7934 184.769 62.5725 183.913 62.5725H175.094V74H170.622ZM175.094 58.515H182.298C183.899 58.515 185.141 58.1147 186.024 57.3142C186.908 56.4862 187.349 55.3683 187.349 53.9605V53.6293C187.349 52.2216 186.908 51.1175 186.024 50.317C185.169 49.4889 183.927 49.0749 182.298 49.0749H175.094V58.515ZM207.672 74.5797C204.111 74.5797 201.282 73.586 199.184 71.5986C197.086 69.5836 196.037 66.6853 196.037 62.9038V56.1135C196.037 52.332 197.086 49.4475 199.184 47.4601C201.282 45.4451 204.111 44.4376 207.672 44.4376C211.233 44.4376 214.062 45.4451 216.16 47.4601C218.285 49.4475 219.348 52.332 219.348 56.1135V62.9038C219.348 66.6853 218.285 69.5836 216.16 71.5986C214.062 73.586 211.233 74.5797 207.672 74.5797ZM207.672 70.5635C209.963 70.5635 211.729 69.901 212.972 68.5761C214.214 67.2236 214.835 65.388 214.835 63.0694V55.9479C214.835 53.6293 214.214 51.8075 212.972 50.4826C211.729 49.1301 209.963 48.4538 207.672 48.4538C205.436 48.4538 203.683 49.1301 202.414 50.4826C201.144 51.8075 200.509 53.6293 200.509 55.9479V63.0694C200.509 65.388 201.144 67.2236 202.414 68.5761C203.683 69.901 205.436 70.5635 207.672 70.5635ZM235.194 74V45.0173H243.807L251.673 71.0189H252.336V45.0173H256.766V74H248.154L240.287 47.957H239.625V74H235.194ZM262.811 74V45.0173H281.07V49.0749H267.282V57.397H279.91V61.4546H267.282V69.9424H281.277V74H262.811ZM288.547 74L284.282 45.0173H288.754L292.232 70.9775H292.894L297.366 45.0173H305.191L309.663 70.9775H310.325L313.762 45.0173H318.234L313.969 74H306.144L301.589 47.6671H300.927L296.414 74H288.547ZM332.506 74.5797C330.326 74.5797 328.393 74.1932 326.71 73.4203C325.026 72.6475 323.701 71.5158 322.735 70.0252C321.796 68.5071 321.327 66.6715 321.327 64.5185V63.4834H325.757V64.5185C325.757 66.5611 326.365 68.093 327.579 69.1143C328.821 70.1356 330.464 70.6463 332.506 70.6463C334.576 70.6463 336.136 70.2184 337.185 69.3628C338.234 68.4795 338.758 67.3478 338.758 65.9676C338.758 65.0568 338.51 64.3115 338.013 63.7318C337.516 63.1522 336.812 62.6967 335.901 62.3655C334.99 62.0067 333.9 61.6754 332.63 61.3718L331.098 60.9992C329.249 60.5575 327.634 60.0193 326.254 59.3844C324.902 58.722 323.853 57.8525 323.108 56.776C322.362 55.6995 321.99 54.3194 321.99 52.6356C321.99 50.9242 322.404 49.4613 323.232 48.2468C324.087 47.0323 325.261 46.0938 326.751 45.4313C328.242 44.7689 329.994 44.4376 332.009 44.4376C334.024 44.4376 335.819 44.7827 337.392 45.4727C338.993 46.1628 340.249 47.1841 341.16 48.5366C342.071 49.8891 342.526 51.5867 342.526 53.6293V55.1198H338.096V53.6293C338.096 52.3872 337.834 51.3797 337.309 50.6068C336.812 49.8339 336.108 49.2681 335.197 48.9093C334.287 48.5504 333.224 48.371 332.009 48.371C330.243 48.371 328.863 48.7436 327.869 49.4889C326.903 50.2066 326.42 51.2141 326.42 52.5114C326.42 53.3947 326.627 54.1261 327.041 54.7058C327.483 55.2578 328.117 55.7133 328.945 56.0721C329.774 56.431 330.809 56.7484 332.051 57.0244L333.583 57.397C335.46 57.8111 337.116 58.3493 338.551 59.0118C339.987 59.6467 341.118 60.5161 341.946 61.6202C342.774 62.7243 343.188 64.1459 343.188 65.8848C343.188 67.6238 342.747 69.1419 341.863 70.4393C341.008 71.7366 339.779 72.7579 338.179 73.5032C336.578 74.2208 334.687 74.5797 332.506 74.5797Z" fill="white"/>
<path d="M33.4375 70.9375C29.625 74.14 28.3542 83.6458 28.3542 83.6458C28.3542 83.6458 37.86 82.375 41.0625 78.5625C42.8671 76.4275 42.8417 73.1487 40.8337 71.1662C39.8458 70.2233 38.5444 69.6784 37.1794 69.6362C35.8144 69.594 34.4818 70.0574 33.4375 70.9375V70.9375Z" stroke="url(#paint0_linear_2_2)" stroke-width="5.08333" stroke-linecap="round" stroke-linejoin="round"/>
<path d="M52.5 67.125L44.875 59.5C46.2275 55.9911 47.9306 52.6275 49.9583 49.4604C52.9198 44.7253 57.0435 40.8265 61.9372 38.135C66.8309 35.4435 72.3318 34.0487 77.9167 34.0833C77.9167 40.9967 75.9342 53.1458 62.6667 62.0417C59.4563 64.0718 56.0503 65.7747 52.5 67.125V67.125Z" stroke="url(#paint1_linear_2_2)" stroke-width="5.08333" stroke-linecap="round" stroke-linejoin="round"/>
<path d="M44.875 59.5H32.1667C32.1667 59.5 33.5646 51.7988 37.25 49.3333C41.3675 46.5883 49.9583 49.3333 49.9583 49.3333" stroke="url(#paint2_linear_2_2)" stroke-width="5.08333" stroke-linecap="round" stroke-linejoin="round"/>
<path d="M52.5 67.125V79.8333C52.5 79.8333 60.2013 78.4354 62.6667 74.75C65.4117 70.6325 62.6667 62.0417 62.6667 62.0417" stroke="url(#paint3_linear_2_2)" stroke-width="5.08333" stroke-linecap="round" stroke-linejoin="round"/>
<defs>
<linearGradient id="paint0_linear_2_2" x1="35.3668" y1="69.6336" x2="35.3668" y2="83.6458" gradientUnits="userSpaceOnUse">
<stop stop-color="#7000FF"/>
<stop offset="1" stop-color="#BD00FF"/>
</linearGradient>
<linearGradient id="paint1_linear_2_2" x1="61.3958" y1="34.0827" x2="61.3958" y2="67.125" gradientUnits="userSpaceOnUse">
<stop stop-color="#7000FF"/>
<stop offset="1" stop-color="#BD00FF"/>
</linearGradient>
<linearGradient id="paint2_linear_2_2" x1="41.0625" y1="48.1133" x2="41.0625" y2="59.5" gradientUnits="userSpaceOnUse">
<stop stop-color="#7000FF"/>
<stop offset="1" stop-color="#BD00FF"/>
</linearGradient>
<linearGradient id="paint3_linear_2_2" x1="58.1933" y1="62.0417" x2="58.1933" y2="79.8333" gradientUnits="userSpaceOnUse">
<stop stop-color="#7000FF"/>
<stop offset="1" stop-color="#BD00FF"/>
</linearGradient>
</defs>
</svg>
